<svg width="400" height="460" viewBox="0 0 680 460" xmlns="http://www.w3.org/2000/svg">
  <path d="M340 40 L220 95 L220 220 Q220 310 340 355 Z" fill="#1a7fe8"/>
  <path d="M340 40 L460 95 L460 220 Q460 310 340 355 Z" fill="#0fa36b"/>
  <path d="M340 40 L460 95 L460 130 Q400 108 340 103 Q280 108 220 130 L220 95 Z" fill="white" opacity="0.20"/>
  <path d="M340 40 L460 95 L460 220 Q460 310 340 355 Q220 310 220 220 L220 95 Z" fill="none" stroke="white" stroke-width="4" opacity="0.5"/>
  <rect x="320" y="128" width="40" height="120" rx="12" fill="white"/>
  <rect x="288" y="160" width="104" height="40" rx="12" fill="white"/>
  <rect x="320" y="160" width="40" height="40" rx="8" fill="#d0eaff" opacity="0.6"/>
  <text x="340" y="390" text-anchor="middle" font-family="Poppins, Arial, sans-serif" font-size="48" font-weight="700" letter-spacing="4">
    <tspan fill="#1a7fe8">MEDI</tspan><tspan fill="#0fa36b">CLASSIFY</tspan>
  </text>
  <line x1="180" y1="406" x2="500" y2="406" stroke="#dde" stroke-width="1.5"/>
  <text x="340" y="435" text-anchor="middle" font-family="Poppins, Arial, sans-serif" font-size="18" font-weight="700" fill="#1a7fe8" letter-spacing="1">Diagnose Faster. Treat Better.</text>
</svg>